# xmcd
#
# Track frame offsets:
#	150
#	16312
#	32707
#	50014
#	65389
#	79787
#	93877
#	107347
#	127133
#	142264
#	156939
#	174629
#
# Disc length: 2671 seconds
#
# Revision: 0
# Processed by: cddbd v1.5.1PL2 Copyright (c) Steve Scherf et al.
# Submitted via: dBpowerAMP V4.0
#
DISCID=a00a6d0c
DTITLE=Yvonne Elliman - The Best Of Yvonne Elliman: 20th Century Masters The Millennium Collection
DYEAR=2004
DGENRE=R&B
TTITLE0=I Don't Know How To Love Him
TTITLE1=Best Of My Love
TTITLE2=Somewhere In The Night
TTITLE3=Love Me
TTITLE4=Hello Stranger
TTITLE5=I Can't Get You Out Of My Mind
TTITLE6=If I Can't Have You
TTITLE7=Baby Don't Let It Mess Your Mind
TTITLE8=Down The Backstairs Of My Life
TTITLE9=Moment By Moment
TTITLE10=Love Pains
TTITLE11=Everything Must Change
EXTD=
EXTT0=
EXTT1=
EXTT2=
EXTT3=
EXTT4=
EXTT5=
EXTT6=
EXTT7=
EXTT8=
EXTT9=
EXTT10=
EXTT11=
PLAYORDER=
